<svg width="897" height="694" viewBox="0 0 897 694" fill="none" xmlns="http://www.w3.org/2000/svg">
<g id="Group 10">
<g id="women">
<path id="Vector" opacity="0.5" d="M93.792 523.12C41.8457 523.12 0 545.486 0 572.902C0 600.318 41.8457 622.684 93.792 622.684C145.738 622.684 187.584 600.318 187.584 572.902C186.863 545.486 145.017 523.12 93.792 523.12Z" fill="#D8C4C3"/>
<path id="Vector_2" opacity="0.5" d="M373.725 462.516C355.688 464.68 326.829 489.211 296.527 500.033C266.225 511.577 186.141 522.399 170.99 528.892C155.839 535.385 147.181 548.372 166.661 560.637C186.862 572.902 217.164 544.043 253.238 533.942C290.033 523.842 396.812 507.969 411.963 491.375C427.114 475.503 394.647 460.352 373.725 462.516Z" fill="#D8C4C3"/>
<g id="Group">
<path id="Vector_3" d="M374.446 138.573C354.966 129.915 344.866 99.6131 342.701 80.1332C340.537 60.6533 343.423 39.7305 336.208 20.9721C330.436 6.54255 318.893 -0.672217 303.02 0.0492596C295.084 0.0492596 287.148 2.93517 282.097 7.26403C277.768 10.1499 275.604 15.2003 276.325 20.2506V20.9721C276.325 21.6936 276.325 21.6936 276.325 22.415C277.047 23.858 277.768 26.0224 279.211 27.4654L279.933 28.1869C282.819 31.0728 286.426 32.5157 289.312 31.7942C295.084 32.5157 301.577 33.2372 304.463 36.1231C311.678 42.6164 309.513 58.4889 310.956 67.8681C312.399 76.5258 313.121 92.3983 314.564 101.056C321.057 123.422 344.144 147.231 374.446 138.573Z" fill="#2C1D1B"/>
<path id="Vector_4" d="M264.061 20.2505C264.061 20.2505 272.718 8.7069 284.262 16.6431C299.413 26.7438 295.084 37.566 290.755 39.7304C287.148 41.8948 264.061 20.2505 264.061 20.2505Z" fill="#FF85C5"/>
<path id="Vector_5" d="M380.218 435.1L387.433 450.251C387.433 450.251 383.825 460.351 380.94 466.123C378.054 471.895 373.003 471.174 367.953 479.11C363.624 486.325 368.674 491.375 382.383 492.096C396.091 492.818 399.698 485.603 404.027 476.224C408.356 466.845 414.849 455.301 414.849 447.365C414.849 435.1 404.748 435.821 398.977 431.492C395.369 429.328 380.218 435.1 380.218 435.1Z" fill="#FFC9B6"/>
<path id="Vector_6" d="M212.114 494.983C209.95 500.754 206.342 507.969 194.799 510.134C179.648 512.298 176.04 510.134 169.547 514.463C163.054 518.791 172.433 527.449 179.648 532.499C190.47 540.436 202.735 536.828 210.671 534.664C221.493 532.499 232.316 528.892 231.594 518.07C230.873 507.248 235.201 500.754 235.201 500.754C235.201 500.754 215.722 484.882 212.114 494.983Z" fill="#FFC9B6"/>
<path id="Vector_7" d="M192.634 510.134C192.634 510.134 192.634 515.184 198.406 518.07C204.899 520.956 217.164 521.677 221.493 518.07C225.822 514.462 231.594 512.298 231.594 512.298C231.594 512.298 235.923 524.563 221.493 531.778C206.342 538.271 198.406 543.322 183.255 538.993C168.104 534.664 158.725 524.563 166.661 514.462C170.99 509.412 192.634 510.134 192.634 510.134Z" fill="#BBCDFF"/>
<g id="Group_2">
<path id="Vector_8" d="M370.118 383.153C363.625 378.824 357.853 377.381 350.638 375.939C369.396 343.472 369.396 311.727 362.182 274.932C360.017 264.831 355.688 241.744 345.588 235.972C341.259 233.808 292.92 235.251 287.869 233.808C283.541 248.959 278.49 269.16 277.769 277.096C276.326 298.741 293.641 303.791 293.641 303.791C293.641 303.791 294.363 315.334 296.527 324.714C300.856 345.637 309.514 375.217 322.5 391.811C321.779 403.355 328.994 406.241 338.373 408.405C345.588 409.848 372.282 437.264 387.433 449.529C387.433 449.529 403.306 447.365 403.306 432.935C393.927 422.113 393.205 398.304 370.118 383.153Z" fill="#BBCDFF"/>
<path id="Vector_9" d="M277.769 277.818C278.49 269.16 283.54 249.68 287.869 234.529C279.212 231.643 266.946 229.479 263.339 228.036C234.48 271.324 225.822 326.157 225.101 377.382C218.607 388.204 220.772 401.912 220.772 414.177C220.772 437.986 215.722 461.794 212.836 485.603C212.114 489.211 211.393 493.539 209.95 498.59C215 501.476 231.594 505.083 233.037 505.083C240.973 481.274 256.124 455.301 260.453 430.049C261.896 423.556 261.896 416.341 261.175 409.127C260.453 402.633 257.567 396.14 259.732 389.647C261.896 384.596 267.668 378.825 270.554 374.496C274.883 367.281 279.211 359.345 283.54 351.408C287.869 343.472 292.198 334.093 295.805 325.435C293.641 315.335 292.92 304.512 292.92 304.512C292.92 304.512 276.326 299.462 277.769 277.818Z" fill="#A6C2FF"/>
</g>
<path id="Vector_10" d="M244.581 97.4486C257.567 80.8546 264.782 83.019 280.655 92.3982C300.134 103.22 315.285 110.435 323.943 117.65C338.373 129.194 346.309 153.724 349.195 184.747C349.916 189.076 352.081 205.67 354.245 209.999C360.017 226.593 357.131 229.479 352.802 233.808C354.967 235.972 357.131 246.073 352.802 248.959C330.436 261.945 280.655 264.11 264.061 232.365C263.339 230.2 265.504 223.707 266.946 221.543C263.339 219.378 260.453 214.328 260.453 209.999C253.96 206.392 248.188 201.341 246.745 191.962C233.759 189.076 219.329 181.861 223.658 165.267C225.822 157.331 232.316 140.016 234.48 130.636C239.53 112.6 240.252 101.777 244.581 97.4486Z" fill="#FF85C5"/>
<path id="Vector_11" d="M254.681 106.107C258.288 105.385 267.667 100.335 264.782 83.0193C264.06 77.9689 286.426 64.9823 286.426 65.7038C286.426 81.5763 288.59 99.6132 295.805 108.271C284.983 119.093 273.439 147.231 255.402 143.623C245.302 140.737 247.466 126.308 254.681 106.107Z" fill="#FFB9A4"/>
<path id="Vector_12" d="M246.024 100.334C246.024 100.334 243.138 116.928 240.974 122.7C238.809 128.472 234.48 142.18 234.48 142.18C234.48 142.18 240.252 139.294 243.859 140.737C246.745 142.18 249.631 146.509 252.517 147.23C255.403 147.952 259.01 147.23 259.01 147.23L261.175 139.294C261.175 139.294 255.403 137.851 255.403 127.75C255.403 118.371 256.125 104.663 256.125 104.663L246.024 100.334Z" fill="#FF61AD"/>
<path id="Vector_13" d="M288.591 93.8413C288.591 93.8413 283.54 105.385 279.211 114.043C274.161 122.7 264.06 132.08 259.01 136.408C251.074 142.902 253.96 153.724 253.96 153.724C253.96 153.724 256.846 147.231 260.453 147.952C264.06 148.674 267.668 152.281 271.997 155.888C274.882 150.838 282.819 145.788 288.591 136.408C293.641 127.751 302.299 112.6 298.691 101.778C295.805 90.9554 288.591 93.8413 288.591 93.8413Z" fill="#FF61AD"/>
<path id="Vector_14" d="M235.923 45.5023C250.353 42.6164 257.567 41.8949 269.833 46.9453C277.047 49.1097 283.541 51.9956 290.034 56.3245C290.755 56.3245 290.755 57.0459 290.755 57.7674C287.869 76.5258 281.376 96.0057 260.453 103.942C243.138 110.435 233.759 91.6768 230.873 79.4117C227.265 64.9822 225.822 47.6667 235.923 45.5023Z" fill="#FFC9B6"/>
<path id="Vector_15" d="M280.654 26.7439C266.946 15.9218 250.352 17.3647 240.973 24.5795C231.594 33.2372 223.658 44.7809 227.987 57.7675C232.315 58.4889 238.809 54.8815 242.416 51.9956C248.188 58.4889 258.289 65.7037 270.554 64.2607C272.718 72.197 277.768 88.791 284.983 88.791C298.691 59.2104 302.299 44.7809 280.654 26.7439Z" fill="#3F2A28"/>
<path id="Vector_16" d="M267.668 72.1971C267.668 72.1971 271.275 60.6535 278.49 66.4253C285.705 72.1971 275.604 83.7407 275.604 83.7407L267.668 72.1971Z" fill="#FFC9B6"/>
<path id="Vector_17" d="M380.94 466.123C380.94 466.123 380.218 469.009 373.004 473.338C365.789 477.667 364.346 484.16 364.346 487.768C364.346 491.375 372.282 496.425 383.104 495.704C393.926 494.982 400.42 490.654 405.47 480.553C410.52 469.731 418.457 446.644 416.292 441.593C414.849 438.707 410.52 437.264 409.799 436.543C409.799 436.543 411.242 441.593 409.799 446.644C407.635 454.58 404.749 460.352 401.141 466.123C397.534 472.617 391.041 473.338 385.99 471.174C381.661 469.731 380.94 466.123 380.94 466.123Z" fill="#BBCDFF"/>
</g>
<g id="Group_3">
<path id="Vector_18" d="M7.21484 520.956V567.13C7.21484 591.661 44.0102 611.14 89.4632 611.14C134.916 611.14 171.712 591.661 171.712 567.13V520.956H7.21484Z" fill="#352221"/>
<g id="Group_4">
<path id="Vector_19" d="M89.4632 591.66C44.0102 591.66 7.21484 572.18 7.21484 547.65V554.143C7.21484 578.674 44.0102 598.153 89.4632 598.153C134.916 598.153 171.712 578.674 171.712 554.143V547.65C171.712 572.18 134.916 591.66 89.4632 591.66Z" fill="#778DFD"/>
</g>
<path id="Vector_20" d="M261.896 251.845C261.896 251.845 253.239 276.375 241.695 302.348C229.43 327.6 209.229 336.979 178.927 323.271C148.624 309.563 211.393 220.821 211.393 220.821L261.896 251.845Z" fill="#352221"/>
<path id="Vector_21" d="M89.4632 479.11C44.0102 479.11 7.21484 498.59 7.21484 523.12C7.21484 547.65 44.0102 567.13 89.4632 567.13C134.916 567.13 171.712 547.65 171.712 523.12C171.712 498.59 134.916 479.11 89.4632 479.11Z" fill="#472F2E"/>
<path id="Vector_22" d="M160.168 502.919C152.232 486.325 123.373 474.06 89.4637 474.06C55.5542 474.06 26.6952 486.325 18.7589 502.919H16.5945V512.298C16.5945 533.942 49.0609 551.258 89.4637 551.258C129.866 551.258 162.333 533.942 162.333 512.298V502.919H160.168Z" fill="#778DFD"/>
<path id="Vector_23" d="M89.4637 463.238C49.0609 463.238 16.5945 480.553 16.5945 502.197C16.5945 523.842 49.0609 541.157 89.4637 541.157C129.866 541.157 162.333 523.842 162.333 502.197C162.333 480.553 129.866 463.238 89.4637 463.238Z" fill="#8DA3FF"/>
<g id="Group_5">
<path id="Vector_24" d="M56.2749 494.261C45.4528 488.489 41.1239 482.717 41.1239 477.667C41.1239 471.895 47.6172 467.566 52.6675 463.959C57.7179 461.073 63.4897 458.908 69.2615 456.022C77.9192 452.415 87.2984 448.086 92.3488 443.757C101.728 435.1 103.171 431.492 106.057 414.898C110.386 391.811 132.03 388.925 132.03 388.925L132.751 393.254C132.03 393.254 114.715 395.418 110.386 415.62C106.778 432.214 105.335 436.543 95.2347 446.643C90.1843 451.694 80.8051 456.022 70.7045 459.63C64.9326 461.794 59.1608 464.68 54.832 467.566C48.3387 471.174 45.4528 474.059 45.4528 476.945C45.4528 479.11 47.6172 483.439 58.4394 489.932L56.2749 494.261Z" fill="#F4EBEA"/>
</g>
<g id="Group_6">
<g id="Group_7">
<path id="Vector_25" d="M135.638 588.774C135.638 575.788 143.574 560.637 153.675 554.865C155.84 553.422 158.725 552.701 161.611 552.701C163.776 552.701 168.105 552.701 173.155 555.586C178.927 559.194 179.648 567.13 179.648 567.13L158.725 608.254C158.725 608.254 152.232 611.14 145.739 607.533C141.41 605.368 139.246 601.761 137.803 599.597C137.803 598.875 137.081 596.711 137.081 595.989C136.36 593.825 135.638 591.66 135.638 588.774Z" fill="#281818"/>
<path id="Vector_26" d="M178.927 572.902C178.927 585.889 170.991 601.04 160.89 606.811C150.789 612.583 142.853 606.811 142.853 593.103C142.853 580.117 150.789 564.966 160.89 559.194C170.991 554.144 178.927 559.915 178.927 572.902Z" fill="#3F2A28"/>
<path id="Vector_27" d="M177.484 574.345C177.484 585.888 170.269 598.875 161.611 603.925C152.954 608.976 145.739 603.925 145.739 592.382C145.739 580.838 152.954 567.851 161.611 562.801C170.269 557.751 177.484 562.801 177.484 574.345Z" fill="#778DFD"/>
<path id="Vector_28" d="M173.155 579.395C173.155 585.167 169.548 591.66 165.219 593.825C160.89 595.989 157.282 593.825 157.282 588.053C157.282 582.281 160.89 575.788 165.219 573.623C169.548 570.738 173.155 573.624 173.155 579.395Z" fill="white"/>
</g>
</g>
<path id="Vector_29" d="M167.55 323.418L104.124 470.5L128.637 481.071L192.064 333.989L167.55 323.418Z" fill="#352221"/>
<path id="Vector_30" d="M145.738 489.211L83.691 525.284L41.1239 500.033L103.171 463.959L145.738 489.211Z" fill="#352221"/>
<path id="Vector_31" d="M47.6175 479.831C41.8457 483.439 40.4027 493.54 40.4027 500.754C47.6175 500.754 69.9833 492.818 69.9833 492.818L66.3759 483.439L47.6175 479.831Z" fill="#352221"/>
<path id="Vector_32" d="M145.738 472.617L135.638 487.768L90.9061 504.362L47.6174 479.832L103.171 447.365L145.738 472.617Z" fill="#543A3A"/>
<path id="Vector_33" d="M145.739 472.617C145.739 472.617 147.903 474.781 147.903 479.831C147.903 484.882 147.903 487.768 147.903 487.768L132.031 497.147L136.36 483.439L145.739 472.617Z" fill="#472F2E"/>
<path id="Vector_34" d="M145.738 472.617C145.738 472.617 96.6779 501.476 90.9061 504.362C85.1342 507.248 83.6913 518.07 83.6913 525.285C93.0705 519.513 147.903 488.489 147.903 488.489L145.738 472.617Z" fill="#472F2E"/>
<path id="Vector_35" d="M73.5905 457.465V474.059C73.5905 481.274 85.1341 487.767 99.5636 487.767C113.993 487.767 125.537 481.996 125.537 474.059V457.465H73.5905Z" fill="#778DFD"/>
<path id="Vector_36" d="M99.5636 443.758C85.1341 443.758 73.5905 449.529 73.5905 457.466C73.5905 464.68 85.1341 471.174 99.5636 471.174C113.993 471.174 125.537 465.402 125.537 457.466C125.537 449.529 113.993 443.758 99.5636 443.758Z" fill="#8DA3FF"/>
<g id="Group_8">
<path id="Vector_37" d="M124.094 520.956C109.665 520.956 95.2352 515.184 94.5138 514.462C93.0708 513.741 93.0708 513.019 93.0708 511.576C93.7923 510.133 94.5138 510.133 95.9567 510.133C95.9567 510.133 118.323 518.791 134.195 514.462C151.51 509.412 160.168 499.311 157.282 487.046C155.839 481.996 153.675 477.667 151.51 474.06C149.346 469.731 146.46 466.123 147.182 461.794C147.903 448.086 154.396 438.707 159.447 432.214C160.89 430.771 161.611 429.328 162.333 427.885C169.547 416.341 165.94 404.076 165.94 403.355C165.218 401.912 165.94 401.19 167.383 400.469C168.826 399.747 169.547 400.469 170.269 401.912C170.269 402.633 174.598 416.341 166.661 430.049C165.94 431.492 164.497 432.935 163.054 434.378C158.725 440.15 152.232 448.808 152.232 461.073C152.232 463.959 153.675 467.566 156.561 471.174C158.725 474.781 161.611 479.11 163.054 484.882C166.661 499.311 156.561 511.576 137.081 517.348C131.309 520.234 127.702 520.956 124.094 520.956Z" fill="#F4EBEA"/>
</g>
<g id="Group_9">
<path id="Vector_38" d="M231.594 234.529C226.544 228.758 219.329 224.429 219.329 224.429C219.329 224.429 218.607 223.707 216.443 222.986C208.507 217.935 197.685 214.328 197.685 214.328C197.685 214.328 160.889 277.818 147.903 308.842C138.524 333.372 119.765 389.647 119.765 389.647C119.765 389.647 119.765 418.506 122.651 427.885C122.651 428.607 122.651 429.328 122.651 429.328C124.094 439.429 131.309 444.479 139.245 439.429C142.131 437.264 146.46 435.1 150.789 431.493C169.547 417.785 189.748 373.774 202.014 342.751C215 311.727 240.252 254.009 240.252 254.009C240.252 254.009 236.644 240.301 231.594 234.529Z" fill="#778DFD"/>
<path id="Vector_39" d="M222.936 230.201C217.886 224.429 210.671 220.1 210.671 220.1C210.671 220.1 204.178 215.771 196.963 213.607C190.47 212.164 178.205 215.049 178.205 215.049C178.205 215.049 160.168 259.781 147.181 290.805C134.194 321.828 117.601 368.003 119.765 394.697C120.486 401.191 121.208 406.962 121.929 411.291C123.372 421.392 130.587 426.442 138.523 421.392C141.409 419.227 145.738 417.063 150.067 413.456C168.825 399.748 189.027 355.738 201.292 324.714C214.278 293.69 232.315 248.959 232.315 248.959C232.315 248.959 227.986 236.694 222.936 230.201Z" fill="#8DA3FF"/>
</g>
<g id="Group_10">
<path id="Vector_40" d="M290.756 276.375L251.074 254.009L244.581 265.553L284.984 288.64L290.756 276.375Z" fill="#778DFD"/>
<path id="Vector_41" d="M292.199 279.983C292.199 283.59 290.034 287.197 287.87 288.64C285.705 290.083 283.541 288.64 283.541 285.033C283.541 281.426 285.705 277.818 287.87 276.375C290.034 274.932 292.199 276.375 292.199 279.983Z" fill="#8DA3FF"/>
</g>
<g id="Group_11">
<path id="Vector_42" d="M187.584 217.214L148.624 194.127L142.131 206.392L181.812 229.479L187.584 217.214Z" fill="#778DFD"/>
<path id="Vector_43" d="M150.067 197.734C150.067 201.341 147.903 204.949 145.738 206.392C143.574 207.835 141.409 206.392 141.409 202.784C141.409 199.177 143.574 195.57 145.738 194.127C147.903 193.405 150.067 194.848 150.067 197.734Z" fill="#778DFD"/>
</g>
<path id="Vector_44" d="M215 153.724C215 153.724 210.671 164.546 208.507 169.596C207.064 174.647 207.064 174.647 207.064 174.647C207.064 174.647 187.584 189.798 179.648 196.291C171.711 202.784 165.94 198.455 157.282 203.506C147.181 209.278 147.903 212.885 147.903 220.1C147.903 227.314 157.282 233.086 157.282 233.086C157.282 233.086 181.812 215.771 191.913 210.721C211.393 201.341 227.987 181.861 227.987 181.861C227.987 181.861 221.493 176.811 222.215 169.596C222.215 164.546 225.101 158.053 225.101 158.053C225.101 158.053 222.215 153.724 215 153.724Z" fill="#FFB9A4"/>
<g id="Group_12">
<path id="Vector_45" d="M261.896 253.288V254.73L227.987 235.251L184.698 209.999C184.698 209.999 170.269 219.378 161.611 228.757C160.89 229.479 160.168 230.2 160.168 230.922H158.004V238.858V239.579C158.004 245.351 161.611 250.402 165.219 254.009C170.99 260.502 191.192 272.767 202.735 275.653C214.279 278.539 228.709 281.425 243.86 275.653C259.011 269.882 271.997 259.781 271.997 259.781V252.566L261.896 253.288Z" fill="#352221"/>
<path id="Vector_46" d="M271.275 252.566L227.987 227.315L184.698 202.063C184.698 202.063 170.269 211.442 161.611 220.821C153.675 230.922 158.725 239.58 164.497 246.794C170.269 253.288 190.47 265.553 202.014 268.439C213.557 271.325 227.987 274.211 243.138 268.439C258.289 261.945 271.275 252.566 271.275 252.566Z" fill="#472F2E"/>
</g>
</g>
<g id="Group_13">
<path id="Vector_47" d="M310.956 187.633C309.513 194.848 311.678 206.392 310.956 212.885C298.691 219.378 277.768 241.023 264.06 251.845C254.681 254.009 248.909 251.845 242.416 264.11C238.809 271.325 243.859 279.982 250.352 283.59C258.289 287.197 264.06 282.868 264.782 277.818C261.174 274.211 261.174 269.16 270.554 265.553C282.819 264.11 309.513 248.959 318.893 241.744C327.55 234.529 331.879 235.972 333.322 230.922C337.651 217.935 346.309 192.684 346.309 192.684C346.309 192.684 316.728 189.076 310.956 187.633Z" fill="#FFC9B6"/>
<path id="Vector_48" d="M321.057 114.764C308.07 121.979 302.298 145.066 305.184 164.546C307.349 181.14 309.513 187.633 309.513 187.633C309.513 187.633 330.436 190.519 347.03 194.126C357.131 173.925 355.688 159.496 354.966 142.18C354.966 124.865 333.322 114.042 321.057 114.764Z" fill="#FF61AD"/>
<path id="Vector_49" d="M309.513 187.633C309.513 187.633 318.171 184.747 328.993 186.19C339.815 187.633 349.194 190.519 349.194 190.519L344.865 200.62C344.865 200.62 332.6 197.012 326.107 197.012C319.614 196.291 311.677 198.455 311.677 198.455L309.513 187.633Z" fill="#FFBBE2"/>
</g>
<g id="Group_14">
<path id="Vector_50" d="M234.481 90.9552C234.481 90.9552 228.709 98.17 225.101 106.106C221.494 114.042 220.051 124.865 218.608 132.079C217.887 139.294 218.608 143.623 218.608 143.623C218.608 143.623 227.266 147.952 228.709 148.673C230.152 145.066 232.316 136.408 235.202 129.194C238.809 118.371 242.417 101.777 242.417 101.777C242.417 101.777 237.366 96.0056 234.481 90.9552Z" fill="#FF61AD"/>
<path id="Vector_51" d="M218.608 142.902L215 153.724L225.101 158.053L229.43 146.509C229.43 147.231 225.101 143.623 218.608 142.902Z" fill="#FFBBE2"/>
</g>
</g>
<g id="men">
<path id="Vector_52" opacity="0.5" d="M342.702 637.835L423.507 684.731C427.115 686.895 434.329 686.895 438.658 684.009L465.353 668.137C469.682 665.251 470.403 661.644 466.074 659.479L385.269 612.583C381.662 610.419 374.447 610.419 370.118 613.305L343.423 629.177C339.094 631.342 338.373 635.671 342.702 637.835Z" fill="#D8C4C3"/>
<path id="Vector_53" opacity="0.5" d="M454.53 523.12C427.114 535.385 426.393 553.422 460.302 565.687C494.211 577.952 524.513 588.774 541.829 606.09C559.144 623.405 582.232 642.164 612.534 627.013C625.52 621.241 629.128 608.976 631.292 598.154C634.178 580.838 633.456 567.13 618.305 560.637C582.232 544.764 546.158 526.006 526.678 520.234C507.919 515.184 478.339 512.298 454.53 523.12Z" fill="#D8C4C3"/>
<path id="Vector_54" opacity="0.5" d="M883.809 639.278L794.346 691.224C789.296 694.11 780.638 693.389 775.587 690.503L676.024 632.785C670.252 629.899 669.53 624.848 674.581 621.962L764.044 570.016C769.094 567.13 777.752 567.852 782.802 570.738L882.366 628.456C888.138 631.342 888.859 636.392 883.809 639.278Z" fill="#D8C4C3"/>
<g id="Group_15">
<g id="Group_16">
<g id="Group_17">
<path id="Vector_55" d="M869.38 412.735V564.245C869.38 565.688 871.544 567.131 874.43 567.131C877.316 567.131 879.481 565.688 879.481 564.245V412.735H869.38Z" fill="#3D2828"/>
<path id="Vector_56" d="M874.43 409.849C871.544 409.849 869.38 411.292 869.38 412.735C869.38 414.177 871.544 415.62 874.43 415.62C877.316 415.62 879.481 414.177 879.481 412.735C880.202 410.57 877.316 409.849 874.43 409.849Z" fill="#593D3D"/>
</g>
<path id="Vector_57" d="M870.822 412.013H878.758V371.61C878.758 357.902 870.101 341.308 859.279 334.815L818.876 311.728C813.104 308.842 808.054 308.12 803.725 311.006C798.674 313.892 795.789 320.385 795.789 328.322V514.463H803.725V328.322C803.725 323.271 805.168 318.942 808.054 317.499C810.218 316.057 812.383 316.778 815.99 318.221L856.393 341.308C865.05 346.359 872.265 360.067 872.265 371.61V412.013H870.822Z" fill="white"/>
<path id="Vector_58" d="M874.43 409.849C872.265 409.849 870.823 410.57 870.823 412.013C870.823 413.456 872.265 414.177 874.43 414.177C876.594 414.177 878.037 413.456 878.037 412.013C878.037 410.57 876.594 409.849 874.43 409.849Z" fill="#D8C4C3"/>
<path id="Vector_59" d="M893.91 577.231C893.91 577.231 893.91 593.104 886.695 597.433C878.759 602.483 863.608 570.017 863.608 570.017L893.188 573.624L893.91 577.231Z" fill="#2B1B1A"/>
<g id="Group_18">
<g id="Group_19">
<path id="Vector_60" d="M771.98 673.909C771.98 665.973 777.031 656.594 782.803 652.986C784.246 652.265 786.41 651.543 787.853 651.543C789.296 651.543 792.182 651.543 795.068 653.708C798.675 655.872 798.675 660.923 798.675 660.923L786.41 685.453C786.41 685.453 782.803 687.617 778.474 685.453C776.309 684.01 774.145 681.845 773.423 680.402C773.423 679.681 772.702 678.959 772.702 678.238C771.98 676.795 771.98 675.352 771.98 673.909Z" fill="#281818"/>
<path id="Vector_61" d="M798.675 663.808C798.675 671.745 793.624 681.124 787.852 684.731C782.081 688.338 777.03 684.731 777.03 676.795C777.03 668.859 782.081 659.479 787.852 655.872C793.624 652.265 798.675 655.872 798.675 663.808Z" fill="#3F2A28"/>
<path id="Vector_62" d="M795.068 667.416C795.068 671.745 792.182 676.795 789.296 678.959C785.688 681.124 783.524 678.959 783.524 674.631C783.524 670.302 786.41 665.251 789.296 663.087C792.182 660.922 795.068 663.087 795.068 667.416Z" fill="white"/>
</g>
<g id="Group_20">
<path id="Vector_63" d="M793.625 652.265H786.41V673.187C786.41 674.63 787.131 675.352 787.853 676.073L790.017 677.516L792.182 674.63H791.46C792.903 673.187 793.625 671.023 793.625 669.58V652.265Z" fill="#D8C4C3"/>
<path id="Vector_64" d="M788.575 652.265V673.909C788.575 676.795 790.018 677.516 792.182 676.795C794.347 675.352 795.789 672.466 795.789 670.302V652.265H788.575Z" fill="#EDDCDA"/>
</g>
</g>
<g id="Group_21">
<g id="Group_22">
<path id="Vector_65" d="M680.352 619.798C680.352 611.862 685.403 602.483 691.174 598.876C692.617 598.154 694.782 597.433 696.225 597.433C697.668 597.433 700.554 597.433 703.44 599.597C707.047 601.761 707.047 606.812 707.047 606.812L694.782 632.063C694.782 632.063 691.174 634.228 686.846 632.063C684.681 630.621 682.517 628.456 681.795 627.013C681.795 626.292 681.074 625.57 681.074 624.849C681.074 623.406 680.352 621.963 680.352 619.798Z" fill="#281818"/>
<path id="Vector_66" d="M707.769 610.419C707.769 618.355 702.718 627.735 696.947 631.342C691.175 634.949 686.125 631.342 686.125 623.406C686.125 615.47 691.175 606.09 696.947 602.483C702.718 598.876 707.769 602.483 707.769 610.419Z" fill="#3F2A28"/>
<path id="Vector_67" d="M703.439 613.305C703.439 617.634 700.553 622.684 697.668 624.849C694.06 627.013 691.896 624.849 691.896 620.52C691.896 616.191 694.782 611.141 697.668 608.976C700.553 606.812 703.439 608.976 703.439 613.305Z" fill="white"/>
</g>
<g id="Group_23">
<path id="Vector_68" d="M702.718 598.876H695.503V619.798C695.503 621.241 696.225 621.963 696.946 622.684L699.111 624.127L701.275 621.241H700.553C701.996 619.798 702.718 617.634 702.718 616.191V598.876Z" fill="#D8C4C3"/>
<path id="Vector_69" d="M697.668 598.876V620.52C697.668 623.406 699.111 624.127 701.275 623.406C703.44 621.963 704.883 619.077 704.883 616.913V598.876H697.668Z" fill="#EDDCDA"/>
</g>
</g>
<g id="Group_24">
<g id="Group_25">
<path id="Vector_70" d="M852.064 613.305C852.064 600.318 860 584.446 870.101 578.674C872.987 577.231 875.873 576.51 878.037 576.51C880.202 576.51 884.531 576.51 889.581 580.117C895.353 583.724 896.074 592.382 896.074 592.382L875.873 633.506C875.873 633.506 869.38 636.392 862.886 632.785C858.558 630.62 856.393 627.013 854.95 624.849C854.229 624.127 853.507 621.963 853.507 621.241C852.064 619.077 852.064 616.191 852.064 613.305Z" fill="#281818"/>
<path id="Vector_71" d="M896.074 597.432C896.074 610.419 888.138 626.291 878.037 632.063C867.936 637.835 860 632.063 860 618.355C860 605.369 867.936 589.496 878.037 583.724C888.138 577.952 896.074 584.446 896.074 597.432Z" fill="#3F2A28"/>
<path id="Vector_72" d="M889.581 602.483C889.581 609.698 885.252 618.355 879.48 621.241C873.709 624.127 869.38 621.241 869.38 614.026C869.38 606.812 873.709 598.154 879.48 595.268C885.252 592.382 889.581 595.268 889.581 602.483Z" fill="white"/>
<path id="Vector_73" d="M888.86 605.369C888.86 610.419 885.974 616.191 882.367 618.355C878.759 620.52 875.873 618.355 875.873 613.305C875.873 608.254 878.759 602.483 882.367 600.318C885.974 598.154 888.86 600.318 888.86 605.369Z" fill="#3F2A28"/>
</g>
</g>
<g id="Group_26">
<path id="Vector_74" d="M854.95 611.141L850.621 595.99L785.688 558.473C774.145 551.98 756.108 551.258 746.007 557.03L693.339 587.332V586.61H676.024V603.926C676.745 608.255 679.631 612.584 685.403 616.191L758.272 658.037C769.816 664.53 787.853 665.251 797.953 659.48L854.95 627.013C854.229 624.849 854.229 621.963 854.229 619.798C854.229 616.191 854.229 613.305 854.95 611.141Z" fill="#352221"/>
</g>
<path id="Vector_75" d="M779.916 522.399C777.03 523.12 774.144 523.842 771.98 525.285L683.238 577.231C673.137 583.003 674.58 593.104 686.124 600.318L758.993 642.164C770.537 648.657 788.574 649.379 798.674 643.607L855.671 611.14C855.671 606.812 862.164 572.181 863.607 570.738L779.916 522.399Z" fill="#472F2E"/>
<g id="Group_27">
<path id="Vector_76" d="M778.473 521.677L787.131 479.11L778.473 474.06C778.473 474.06 771.98 477.667 759.715 484.882C746.728 492.097 743.842 492.818 734.463 511.577C726.527 527.449 719.312 551.258 717.147 557.03L725.805 562.08L778.473 521.677Z" fill="#593D3D"/>
<path id="Vector_77" d="M787.13 526.728V479.11C787.13 479.11 780.637 482.718 768.372 489.932C755.385 497.147 752.499 497.869 743.12 516.627C735.184 532.5 727.969 556.308 725.805 562.08L787.13 526.728Z" fill="#352221"/>
</g>
<g id="Group_28">
<path id="Vector_78" d="M773.423 532.5C739.514 532.5 711.376 518.07 711.376 499.312V587.332C711.376 605.369 738.792 620.52 773.423 620.52C807.333 620.52 835.47 606.091 835.47 587.332V499.312C835.47 518.07 808.054 532.5 773.423 532.5Z" fill="#D8C4C3"/>
<path id="Vector_79" d="M711.376 499.312C711.376 517.349 738.792 532.5 773.423 532.5C807.333 532.5 835.47 518.07 835.47 499.312V412.013H711.376V499.312Z" fill="#352221"/>
<path id="Vector_80" d="M711.376 490.654C711.376 508.691 738.793 523.842 773.423 523.842C807.333 523.842 835.471 509.412 835.471 490.654V402.634H711.376V490.654Z" fill="#778DFD"/>
</g>
<path id="Vector_81" d="M773.423 587.332C739.514 587.332 711.376 572.902 711.376 554.144V559.194C711.376 577.231 738.792 592.382 773.423 592.382C807.333 592.382 835.47 577.953 835.47 559.194V554.144C835.47 572.902 808.054 587.332 773.423 587.332Z" fill="#CCB5B4"/>
<path id="Vector_82" d="M773.423 568.573C739.514 568.573 711.376 554.144 711.376 535.385V540.436C711.376 558.473 738.792 573.624 773.423 573.624C807.333 573.624 835.47 559.194 835.47 540.436V535.385C835.47 553.422 808.054 568.573 773.423 568.573Z" fill="#CCB5B4"/>
<path id="Vector_83" d="M866.494 567.852L893.91 540.436L885.252 535.385C885.252 535.385 878.759 538.993 866.494 546.207C853.507 553.422 850.621 554.144 841.242 572.902C833.306 588.775 826.091 612.583 823.927 618.355L832.584 623.406L851.343 608.976L866.494 567.852Z" fill="#593D3D"/>
</g>
<g id="Group_29">
<path id="Vector_84" d="M737.349 494.983L709.933 479.11V452.415L737.349 468.288V494.983Z" fill="#3D2828"/>
<path id="Vector_85" d="M720.034 446.644L709.933 452.416L737.349 468.288L747.45 462.516L720.034 446.644Z" fill="#593D3D"/>
<path id="Vector_86" d="M737.349 468.288V494.983L747.45 489.211V462.516L737.349 468.288Z" fill="#352221"/>
</g>
<path id="Vector_87" d="M876.594 576.51C883.809 572.181 890.302 572.902 893.909 577.953V541.157C893.909 541.157 887.416 544.765 875.151 551.98C862.164 559.194 859.278 559.916 849.899 578.674C841.963 594.547 834.748 618.355 832.584 624.127L854.95 611.141C857.114 596.711 865.772 582.282 876.594 576.51Z" fill="#352221"/>
<path id="Vector_88" d="M735.906 624.849L708.49 608.976V559.916L735.906 575.788V624.849Z" fill="#3D2828"/>
<path id="Vector_89" d="M718.591 554.144L708.49 559.916L735.906 575.788L746.007 570.016L718.591 554.144Z" fill="#593D3D"/>
<path id="Vector_90" d="M735.907 575.788V624.849L746.007 619.077V570.017L735.907 575.788Z" fill="#352221"/>
<g id="Group_30">
<path id="Vector_91" d="M737.349 647.215C734.463 647.215 731.578 646.493 729.413 645.772C714.262 641.443 708.49 632.785 706.326 626.292C702.719 614.748 706.326 599.597 715.705 585.889C717.148 583.725 720.034 583.725 722.198 585.168C724.363 586.61 724.363 589.496 722.92 591.661C716.427 600.319 711.376 613.305 714.262 624.127C716.427 630.621 722.198 635.671 731.578 638.557C737.349 640 742.4 639.278 748.172 636.392C758.994 629.899 767.651 614.027 771.259 593.104C776.309 567.131 773.423 510.134 771.98 472.617C771.259 459.631 771.259 448.808 771.259 443.037C771.259 440.872 773.423 438.708 775.588 438.708C777.752 438.708 779.917 440.872 779.917 443.037C779.917 448.808 780.638 458.909 780.638 472.617C782.081 510.855 784.245 568.574 779.917 595.268C775.588 618.355 765.487 636.392 752.5 645.05C748.172 645.772 743.121 647.215 737.349 647.215Z" fill="#593D3D"/>
</g>
<g id="Group_31">
<path id="Vector_92" d="M843.407 409.127V401.191H841.242C834.027 384.597 806.611 372.332 773.423 372.332C740.235 372.332 712.819 384.597 705.605 401.191H703.44V409.849C703.44 430.05 734.464 446.644 773.423 446.644C811.662 446.644 843.407 430.05 843.407 409.127Z" fill="#352221"/>
<path id="Vector_93" d="M773.423 362.231C735.185 362.231 703.44 378.825 703.44 399.027C703.44 419.228 734.464 435.822 773.423 435.822C811.662 435.822 843.407 419.228 843.407 399.027C843.407 378.825 811.662 362.231 773.423 362.231Z" fill="#472F2E"/>
<g id="Group_32">
<path id="Vector_94" d="M773.423 414.899C740.235 414.899 713.541 401.191 711.376 383.875C711.376 384.597 711.376 384.597 711.376 385.318V397.583C713.541 414.899 740.235 428.607 773.423 428.607C807.333 428.607 835.47 414.177 835.47 395.419V385.318C835.47 384.597 835.47 383.875 835.47 383.154C834.027 400.469 806.611 414.899 773.423 414.899Z" fill="#778DFD"/>
<path id="Vector_95" d="M780.638 330.486H765.487C735.907 330.486 712.098 354.295 711.376 383.154C713.541 400.469 740.236 414.177 773.423 414.177C806.611 414.177 834.028 399.748 835.471 382.432C834.028 353.573 810.219 330.486 780.638 330.486Z" fill="#352221"/>
</g>
</g>
<path id="Vector_96" d="M782.803 640C788.78 640 793.625 637.416 793.625 634.228C793.625 631.04 788.78 628.456 782.803 628.456C776.826 628.456 771.98 631.04 771.98 634.228C771.98 637.416 776.826 640 782.803 640Z" fill="#3D2828"/>
<path id="Vector_97" d="M694.061 593.104C700.038 593.104 704.883 590.52 704.883 587.332C704.883 584.144 700.038 581.56 694.061 581.56C688.084 581.56 683.239 584.144 683.239 587.332C683.239 590.52 688.084 593.104 694.061 593.104Z" fill="#3D2828"/>
<g id="Group_33">
<path id="Vector_98" d="M808.776 354.295L743.843 391.812C751.779 395.419 762.601 397.583 774.145 397.583C800.839 397.583 821.762 386.04 821.762 372.332C822.484 364.395 817.433 358.624 808.776 354.295Z" fill="#472F2E"/>
</g>
<path id="Vector_99" d="M744.564 391.09C744.564 391.09 744.564 369.446 773.423 353.573C799.396 339.865 808.775 353.573 808.775 353.573L744.564 391.09Z" fill="#3D2828"/>
<g id="Group_34">
<path id="Vector_100" d="M766.208 384.596C764.044 384.596 761.88 385.318 761.88 386.761C761.88 388.204 764.044 388.925 766.208 388.925C768.373 388.925 770.537 388.204 770.537 386.761C770.537 386.039 769.094 384.596 766.208 384.596Z" fill="#D8C4C3"/>
<path id="Vector_101" d="M779.195 377.382C777.031 377.382 774.866 378.103 774.866 379.546C774.866 380.989 777.031 381.711 779.195 381.711C781.36 381.711 783.524 380.989 783.524 379.546C783.524 378.103 781.36 377.382 779.195 377.382Z" fill="#D8C4C3"/>
<path id="Vector_102" d="M792.181 370.167C790.017 370.167 787.853 370.888 787.853 372.331C787.853 373.774 790.017 374.496 792.181 374.496C794.346 374.496 796.51 373.774 796.51 372.331C796.51 370.888 794.346 370.167 792.181 370.167Z" fill="#D8C4C3"/>
<path id="Vector_103" d="M804.447 362.231C802.283 362.231 800.118 362.952 800.118 364.395C800.118 365.838 802.283 366.56 804.447 366.56C806.612 366.56 808.776 365.838 808.776 364.395C808.776 363.674 807.333 362.231 804.447 362.231Z" fill="#D8C4C3"/>
</g>
<path id="Vector_104" d="M816.711 374.496L784.966 393.254L778.473 388.926L810.218 370.889L816.711 374.496Z" fill="#D8C4C3"/>
</g>
<g id="Group_35">
<path id="Vector_105" d="M569.967 91.6769L546.158 75.8044C546.158 75.8044 533.171 82.2977 526.678 91.6769C519.463 101.056 515.134 115.486 518.02 124.865C510.805 145.066 509.362 178.976 508.641 186.19C503.591 206.392 490.604 269.882 491.326 281.425C494.933 286.476 507.198 295.855 515.134 287.919C523.071 279.982 545.436 163.103 545.436 163.103L541.829 161.66C554.815 130.637 569.967 91.6769 569.967 91.6769Z" fill="#FF61AD"/>
<path id="Vector_106" d="M491.326 281.425C491.326 281.425 486.997 290.805 484.111 296.576C481.225 302.348 481.947 313.17 484.111 320.385C486.276 327.6 496.376 333.372 505.756 323.993C515.135 313.892 512.249 287.919 512.249 287.919C512.249 287.919 498.541 287.197 491.326 281.425Z" fill="#FFC9B6"/>
<path id="Vector_107" d="M524.514 218.657C524.514 218.657 503.591 271.325 500.705 292.969C497.819 314.614 491.326 346.359 486.997 373.775C483.39 400.469 483.39 427.164 484.833 453.137C485.554 463.238 489.162 490.654 486.997 505.805C489.162 515.184 511.527 516.627 514.413 505.805C515.856 498.59 533.172 437.265 535.336 417.785C536.779 398.305 532.45 384.597 532.45 384.597C532.45 384.597 560.588 323.993 570.688 300.184C580.789 276.375 573.574 246.795 573.574 246.795L524.514 218.657Z" fill="#2C1D1B"/>
<path id="Vector_108" d="M514.413 502.197C514.413 502.197 515.135 508.691 517.299 515.184C519.463 521.677 516.577 531.056 516.577 531.056C516.577 531.056 515.135 535.385 508.641 536.107C502.869 537.55 498.541 536.107 498.541 536.107C498.541 536.107 492.769 542.6 485.554 548.372C478.339 553.422 461.745 557.751 457.416 557.03C450.202 555.587 446.594 550.536 447.316 546.929C448.037 543.322 455.973 533.221 463.188 528.892C467.517 526.006 477.618 516.627 481.225 513.019C486.275 507.248 489.883 501.476 489.883 501.476L514.413 502.197Z" fill="#2C1D1B"/>
<path id="Vector_109" d="M621.191 556.308C621.191 556.308 624.799 570.738 624.799 578.674C624.077 586.61 622.634 588.775 619.748 591.661C617.584 594.547 614.698 593.104 614.698 593.104C614.698 593.104 613.255 609.698 605.319 616.912C597.382 623.406 582.953 624.127 575.738 621.963C569.245 619.798 573.574 607.533 580.067 595.268C586.56 583.724 595.218 570.738 597.382 559.916C612.534 558.473 621.191 556.308 621.191 556.308Z" fill="#2C1D1B"/>
<path id="Vector_110" d="M598.826 240.301C598.826 240.301 608.926 254.731 616.863 279.982C622.634 298.019 621.913 340.586 621.913 340.586C621.913 340.586 622.634 382.432 620.47 396.862C617.584 411.291 618.306 414.177 618.306 414.177C618.306 414.177 629.849 448.808 628.406 489.932C626.963 531.056 623.356 560.637 623.356 560.637C623.356 560.637 621.191 568.573 610.369 569.295C600.99 570.016 593.775 563.523 593.775 563.523C593.775 563.523 576.46 476.946 569.967 456.744C563.473 437.264 561.309 414.177 561.309 414.177L548.322 316.778C548.322 316.778 521.628 299.462 535.336 256.174C542.55 228.758 598.826 240.301 598.826 240.301Z" fill="#3F2A28"/>
<path id="Vector_111" d="M632.735 129.194C619.748 103.221 580.067 84.4623 551.929 88.7912C538.221 99.6133 532.449 106.828 527.399 119.815C523.07 131.358 520.906 145.066 522.349 157.331C526.678 194.127 518.02 229.479 514.413 243.909C529.564 259.781 549.043 269.882 571.409 273.489C583.674 275.654 592.332 271.325 603.876 266.996C605.319 266.275 606.04 265.553 606.762 263.389C610.369 233.808 621.191 208.556 631.292 181.14C636.342 165.989 639.95 144.345 632.735 129.194Z" fill="#FF85C5"/>
<path id="Vector_112" d="M551.93 88.7913C551.93 88.7913 543.272 98.8919 537.501 110.436C531.729 121.258 530.286 134.244 530.286 134.244L567.803 154.446C567.803 154.446 580.789 131.358 590.89 119.815C600.991 107.55 607.484 102.499 607.484 102.499L613.977 107.55C613.977 107.55 601.712 121.258 595.94 132.08C593.054 137.852 582.232 154.446 580.068 168.154C579.346 173.204 582.232 203.506 584.397 218.657C588.004 246.073 611.813 241.023 611.813 241.023C611.813 241.023 616.142 259.781 622.635 290.083C626.964 312.449 626.242 332.65 626.242 366.56C625.521 392.533 624.799 422.835 624.799 422.835C624.799 422.835 585.118 435.822 557.702 430.771C524.514 425 500.705 410.57 492.769 405.52C479.782 396.862 475.454 386.761 475.454 386.761C475.454 386.761 488.44 337.701 499.984 290.083C507.92 258.338 509.363 240.301 513.692 217.936C516.578 204.228 519.464 174.647 519.464 155.167C519.464 135.687 529.564 106.107 536.058 96.006C544.715 82.298 552.652 80.1335 552.652 80.1335L551.93 88.7913Z" fill="#BBCDFF"/>
<path id="Vector_113" d="M560.587 72.9185C560.587 72.9185 563.473 90.9555 556.98 96.7273C550.486 103.221 550.486 115.486 563.473 119.815C579.346 124.865 590.889 113.321 600.268 105.385C595.939 96.0058 593.775 96.0058 593.775 70.7541C593.775 50.5528 560.587 72.9185 560.587 72.9185Z" fill="#F9BBA7"/>
<g id="Group_36">
<path id="Vector_114" d="M464.631 658.758V649.379H451.644L388.876 613.305C385.269 611.141 379.497 611.862 375.168 614.027L360.017 622.684V621.963L347.03 622.684V631.342C347.03 632.785 347.752 634.228 349.195 634.949L422.785 677.517C426.393 679.681 432.165 678.959 436.493 676.795L461.024 662.366C463.188 661.644 464.631 660.201 464.631 658.758Z" fill="#352221"/>
<path id="Vector_115" d="M349.916 625.57L423.507 668.137C427.114 670.302 432.886 669.58 437.215 667.416L461.745 652.986C466.074 650.822 466.074 647.214 462.466 645.05L388.876 602.483C385.268 600.318 379.497 601.04 375.168 603.204L350.637 617.634C346.309 620.52 346.309 624.127 349.916 625.57Z" fill="#472F2E"/>
<path id="Vector_116" d="M409.799 632.785L403.306 623.406C426.393 606.812 429.279 601.04 444.43 567.13C454.531 545.486 476.175 490.654 494.933 442.315C512.249 396.862 529.564 353.573 534.615 342.751L536.058 339.865C547.601 315.335 554.095 301.627 571.41 295.134C586.561 288.64 616.863 275.654 616.863 274.932L621.192 285.033C621.192 285.033 590.168 298.741 575.017 305.234C562.031 310.285 556.98 321.107 545.437 344.916L543.994 347.802C538.944 358.624 521.628 401.191 504.313 446.644C484.111 497.869 463.188 549.815 453.809 572.181C439.38 605.369 435.051 614.026 409.799 632.785Z" fill="#D8C4C3"/>
<g id="Group_37">
<path id="Vector_117" d="M399.698 630.621C396.09 627.735 397.533 624.127 404.748 618.355C409.798 614.027 421.342 605.369 427.114 595.268C434.329 583.725 463.909 510.134 474.731 483.439C476.174 479.11 492.047 485.604 490.604 489.933C486.275 500.033 450.923 589.496 441.543 604.647C431.443 621.241 417.735 629.899 417.013 630.621C414.127 632.785 406.191 635.671 399.698 630.621Z" fill="#593D3D"/>
</g>
<path id="Vector_118" d="M479.782 479.11L478.339 483.439C477.618 484.882 479.782 487.046 482.668 487.768C485.554 488.489 488.44 488.489 489.161 487.046L490.604 482.718L479.782 479.11Z" fill="#D8C4C3"/>
<path id="Vector_119" d="M428.557 633.506V626.292C428.557 626.292 419.899 628.456 415.57 632.785C411.242 637.114 408.356 645.772 408.356 645.772L428.557 633.506Z" fill="#352221"/>
<g id="Group_38">
<path id="Vector_120" d="M417.013 634.228C422.064 629.899 428.557 626.291 428.557 626.291L402.584 611.14C402.584 611.14 396.091 615.469 391.04 619.077C386.711 621.963 383.104 630.62 383.104 630.62L409.077 645.771C409.077 645.771 412.685 637.114 417.013 634.228Z" fill="#593D3D"/>
</g>
</g>
<g id="Group_39">
<path id="Vector_121" d="M652.936 649.379C651.493 649.379 649.329 649.379 647.886 649.379C632.013 647.215 619.748 640 611.812 627.013C596.661 601.762 599.547 557.03 619.748 505.084C623.356 495.704 627.684 484.882 632.735 473.339C652.215 427.164 676.023 369.446 671.695 335.537C668.809 312.449 660.872 296.577 650.05 288.641C639.95 282.147 629.127 282.869 621.913 285.033C606.04 289.362 589.446 297.298 588.725 297.298C586.56 298.02 584.396 297.298 582.953 295.134C582.231 292.969 582.953 290.805 585.117 289.362C585.839 289.362 602.433 281.426 619.027 277.097C632.013 273.49 644.278 274.932 654.379 281.426C668.087 290.083 676.745 308.12 679.631 334.094C684.681 370.167 660.151 429.329 639.95 476.225C634.899 487.768 630.57 498.59 626.963 507.97C608.205 557.03 604.597 600.319 618.305 622.684C624.799 632.785 634.899 639.278 647.886 640.721C656.544 641.443 663.037 640 668.809 634.949C688.289 618.355 688.289 569.295 688.289 540.436C688.289 531.778 688.289 524.563 689.01 520.235C694.06 468.288 720.034 468.288 720.755 468.288C722.919 468.288 725.084 470.453 725.084 472.617C725.084 474.782 722.919 476.946 720.755 476.946C720.755 476.946 701.275 478.389 696.946 521.678C696.225 526.006 696.225 533.221 696.225 541.157C696.225 573.624 695.503 621.963 673.859 641.443C669.53 647.215 661.594 649.379 652.936 649.379Z" fill="#593D3D"/>
</g>
<path id="Vector_122" d="M648.608 147.952C647.886 125.587 623.356 116.207 623.356 116.207C623.356 116.207 606.041 130.637 608.205 178.254C608.927 182.583 616.141 186.912 618.306 191.241C617.584 209.999 621.913 218.657 628.406 228.036C621.913 232.365 607.484 255.452 598.826 266.996C611.813 270.603 611.813 285.033 611.813 285.033C611.813 285.033 645 269.882 662.316 248.959C669.531 240.301 666.645 232.365 669.531 222.986C673.86 206.392 649.329 167.432 648.608 147.952Z" fill="#FF61AD"/>
<path id="Vector_123" d="M594.496 88.0699C594.496 88.0699 591.611 98.8921 582.953 105.385C572.852 112.6 554.094 114.043 554.094 119.093C559.866 119.093 560.587 119.093 560.587 123.422C560.587 130.637 562.751 132.08 562.751 132.08C562.751 132.08 576.459 128.473 585.839 124.144C598.104 119.093 603.876 102.499 603.876 102.499C603.876 102.499 601.711 87.3484 594.496 88.0699Z" fill="#FF61AD"/>
<path id="Vector_124" d="M554.094 88.7913C554.094 88.7913 546.158 97.4491 542.551 101.056C538.943 104.664 541.108 112.6 539.665 115.486C538.222 119.093 537.5 121.258 537.5 121.258C537.5 121.258 544.715 119.815 546.158 115.486C547.601 111.157 554.816 119.093 554.816 119.093L559.866 114.765C559.866 114.765 552.651 109.714 554.816 104.664C557.702 99.6135 561.309 93.1202 561.309 93.1202L554.094 88.7913Z" fill="#FF61AD"/>
<g id="Group_40">
<path id="Vector_125" d="M588.726 28.9085C578.625 18.0863 552.652 13.7575 543.273 29.63C536.058 41.8951 536.058 62.8179 538.222 72.9186C542.551 93.8414 559.145 106.107 578.625 90.234C597.383 74.3615 606.041 47.6669 588.726 28.9085Z" fill="#FFC9B6"/>
<path id="Vector_126" d="M610.369 42.6167C608.926 35.4019 599.547 26.7442 590.89 28.1871C592.333 20.2509 588.725 11.5932 580.789 8.70725C563.473 3.65691 548.322 13.7576 531.728 18.0864C527.4 18.8079 526.678 21.6938 534.614 26.0227C530.285 26.7442 525.957 28.9086 526.678 33.9589C527.4 37.5663 529.564 39.0093 532.45 39.7308C528.121 46.224 534.614 51.9959 540.386 54.1603C550.487 58.4892 564.916 57.7677 574.296 51.2744C576.46 60.6536 585.118 72.9187 593.776 75.8046C602.433 70.0328 612.534 51.9959 610.369 42.6167Z" fill="#2C1D1B"/>
<path id="Vector_127" d="M578.624 65.704C578.624 65.704 584.396 57.0463 589.446 63.5396C594.497 70.0329 584.396 76.5262 584.396 76.5262L578.624 65.704Z" fill="#FFC9B6"/>
</g>
<path id="Vector_128" d="M545.437 246.073C547.601 246.073 557.702 254.731 569.245 256.895C581.51 258.338 587.282 255.452 592.333 253.288C589.447 253.288 581.51 254.731 569.967 251.845C558.423 248.238 545.437 246.073 545.437 246.073Z" fill="#A6C2FF"/>
<path id="Vector_129" d="M599.547 265.553C593.054 269.882 588.004 274.932 582.232 277.097C575.017 279.983 572.131 279.982 567.802 285.754C563.473 291.526 566.359 298.019 566.359 298.019L575.739 293.691C575.739 293.691 578.624 299.462 575.017 303.791C572.853 305.956 565.638 312.449 565.638 312.449C565.638 312.449 575.739 320.385 590.168 314.613C604.598 309.563 601.712 299.462 606.041 292.248C610.369 285.754 614.698 283.59 614.698 283.59C614.698 283.59 616.863 279.983 611.812 273.489C606.041 264.832 603.876 265.553 599.547 265.553Z" fill="#FFC9B6"/>
<path id="Vector_130" d="M526.678 216.492C526.678 216.492 533.171 225.872 542.551 231.643C551.93 237.415 561.309 238.858 561.309 238.858C561.309 238.858 551.93 230.922 545.437 226.593C538.943 221.543 526.678 216.492 526.678 216.492Z" fill="#A6C2FF"/>
<path id="Vector_131" d="M572.853 323.271C572.853 323.271 562.752 349.245 554.094 372.332C549.044 385.318 541.108 402.634 541.108 402.634C541.108 402.634 551.93 396.862 560.588 377.382C570.688 355.738 572.853 323.271 572.853 323.271Z" fill="#A6C2FF"/>
</g>
</g>
</g>
</svg>
