<svg width="1920" height="359" viewBox="0 0 1920 359" fill="none" xmlns="http://www.w3.org/2000/svg">
<g opacity="0.6">
<path fill-rule="evenodd" clip-rule="evenodd" d="M316.429 1154.92C316.429 1154.92 242.373 1207.61 158.281 640.776C118.009 369.319 400.487 30.6359 814.043 28.861C1078.82 27.7247 1466.68 209.171 1799.53 322.199C2032.35 401.263 2270.27 419.751 2284.07 434.199C2372.14 526.432 2289.77 713.966 2268.84 786.199C2236.11 899.16 1732.63 1067.61 1732.63 1067.61L316.429 1154.92Z" fill="#FAEC8C"/>
<path fill-rule="evenodd" clip-rule="evenodd" d="M5.83798 1340.62C5.83798 1340.62 -68.2184 1393.31 -152.31 826.476C-192.582 555.018 89.8957 216.335 503.452 214.561C768.232 213.424 1156.09 394.871 1488.93 507.899C1721.76 586.963 1959.68 605.451 1973.47 619.899C2061.55 712.131 1979.18 899.665 1958.25 971.899C1925.52 1084.86 1422.04 1253.31 1422.04 1253.31L5.83798 1340.62Z" fill="#94D6E8"/>
</g>
</svg>
