<svg width="359" height="1080" viewBox="0 0 359 1080" fill="none" xmlns="http://www.w3.org/2000/svg">
<path opacity="0.6" fill-rule="evenodd" clip-rule="evenodd" d="M1340.62 1129.24C1340.62 1129.24 1393.31 1170.58 826.476 1217.53C555.018 1240.01 216.335 1082.31 214.56 851.44C213.424 703.623 394.871 487.097 507.899 301.282C586.963 171.304 605.451 38.4848 619.899 30.7824C712.131 -18.3878 899.665 27.5992 971.899 39.2825C1084.86 57.5531 1253.31 338.63 1253.31 338.63L1340.62 1129.24Z" fill="#4CBAD8"/>
<path fill-rule="evenodd" clip-rule="evenodd" d="M1154.92 955.848C1154.92 955.848 1207.61 997.191 640.776 1044.14C369.319 1066.62 30.6359 908.921 28.8611 678.049C27.7247 530.232 209.171 313.706 322.199 127.891C401.263 -2.08737 419.751 -134.906 434.199 -142.609C526.432 -191.779 713.966 -145.792 786.199 -134.109C899.16 -115.838 1067.61 165.238 1067.61 165.238L1154.92 955.848Z" fill="#FAEC8C"/>
</svg>
