<svg width="286" height="1080" viewBox="0 0 286 1080" fill="none" xmlns="http://www.w3.org/2000/svg">
<path fill-rule="evenodd" clip-rule="evenodd" d="M-869.629 185.429C-869.629 185.429 -922.32 111.373 -355.486 27.2812C-84.0282 -12.9904 254.655 269.487 256.429 683.043C256.429 980.5 -199.972 1152.16 -313 1485C-392.064 1717.83 -134.461 2139.27 -148.909 2153.07C-241.142 2241.14 -428.675 2158.77 -500.909 2137.84C-613.87 2105.11 -782.323 1601.63 -782.323 1601.63L-869.629 185.429Z" fill="#FAEC8C"/>
<path fill-rule="evenodd" clip-rule="evenodd" d="M-1055.33 -125.162C-1055.33 -125.162 -1108.02 -199.218 -541.185 -283.31C-269.728 -323.582 68.9552 -41.1041 70.73 372.452C71.8664 637.232 -109.58 1025.09 -222.608 1357.93C-301.672 1590.76 -320.16 1828.68 -334.608 1842.47C-426.841 1930.55 -614.375 1848.18 -686.608 1827.25C-799.569 1794.52 -968.022 1291.04 -968.022 1291.04L-1055.33 -125.162Z" fill="#94D6E8"/>
</svg>
